<svg xmlns="http://www.w3.org/2000/svg" xmlns:xlink="http://www.w3.org/1999/xlink" width="1040" height="213.67999999999998"><rect width="1040" height="213.67999999999998" rx="0" ry="0" class="a"></rect><svg height="173.67999999999998" viewBox="0 0 100 17.368" width="1000" x="20" xmlns="http://www.w3.org/2000/svg" xmlns:xlink="http://www.w3.org/1999/xlink" y="20"><style>.a{fill:rgb(40,45,53)}.b{font-family:'Fira Code',Monaco,Consolas,Menlo,'Bitstream Vera Sans Mono','Powerline Symbols',monospace}.c{fill:transparent}.d{fill:rgb(185,192,203);white-space:pre}.e{fill:rgb(168,204,140);white-space:pre}.f{fill:rgb(113,190,242);white-space:pre}.g{fill:rgb(219,171,121);white-space:pre}</style><g font-family="&#x27;Fira Code&#x27;,Monaco,Consolas,Menlo,&#x27;Bitstream Vera Sans Mono&#x27;,&#x27;Powerline Symbols&#x27;,monospace" font-size="1.67" class="b"><defs><symbol id="a"><rect height="9" width="100" x="0" y="0" class="c"></rect></symbol></defs><rect height="17.368" width="100" class="a"></rect><svg x="0" y="0" width="100"><svg x="0"><use xlink:href="#a"></use><text x="0" y="1.67" class="d">`names(x)`:</text><text x="12.024" y="1.67" class="e">&quot;a&quot;</text><text x="0" y="3.8409999999999997" class="d">`names(y)`:</text><text x="12.024" y="3.8409999999999997" class="e">&quot;b&quot;</text><text x="0" y="8.183" class="d">`x$a`</text><text x="6.012" y="8.183" class="d">is</text><text x="9.017999999999999" y="8.183" class="f">an</text><text x="12.024" y="8.183" class="f">S3</text><text x="15.029999999999998" y="8.183" class="f">object</text><text x="22.043999999999997" y="8.183" class="f">of</text><text x="25.05" y="8.183" class="f">class</text><text x="31.061999999999998" y="8.183" class="f">&lt;factor&gt;</text><text x="0" y="10.354" class="d">`y$a`</text><text x="6.012" y="10.354" class="d">is</text><text x="9.017999999999999" y="10.354" class="d">absent</text><text x="0" y="14.696" class="d">`x$b`</text><text x="6.012" y="14.696" class="d">is</text><text x="9.017999999999999" y="14.696" class="d">absent</text><text x="0" y="16.866999999999997" class="d">`y$b`</text><text x="6.012" y="16.866999999999997" class="d">is</text><text x="9.017999999999999" y="16.866999999999997" class="g">an</text><text x="12.024" y="16.866999999999997" class="g">integer</text><text x="20.04" y="16.866999999999997" class="g">vector</text><text x="27.054" y="16.866999999999997" class="d">(1)</text></svg></svg></g></svg></svg>