<svg xmlns="http://www.w3.org/2000/svg" xmlns:xlink="http://www.w3.org/1999/xlink" width="1040" height="148.55"><rect width="1040" height="148.55" rx="0" ry="0" class="a"></rect><svg height="108.55000000000001" viewBox="0 0 100 10.855" width="1000" x="20" xmlns="http://www.w3.org/2000/svg" xmlns:xlink="http://www.w3.org/1999/xlink" y="20"><style>.a{fill:rgb(40,45,53)}.b{font-family:'Fira Code',Monaco,Consolas,Menlo,'Bitstream Vera Sans Mono','Powerline Symbols',monospace}.c{fill:transparent}.d{fill:rgb(232,131,136);white-space:pre}.e{fill:rgb(185,192,203);white-space:pre}.f{fill:rgb(219,171,121);white-space:pre}.g{fill:rgb(113,190,242);white-space:pre}</style><g font-family="&#x27;Fira Code&#x27;,Monaco,Consolas,Menlo,&#x27;Bitstream Vera Sans Mono&#x27;,&#x27;Powerline Symbols&#x27;,monospace" font-size="1.67" class="b"><defs><symbol id="a"><rect height="6" width="100" x="0" y="0" class="c"></rect></symbol></defs><rect height="10.855" width="100" class="a"></rect><svg x="0" y="0" width="100"><svg x="0"><use xlink:href="#a"></use><text x="0" y="1.67" class="d">x</text><text x="2.004" y="1.67" class="e">`class(x)`</text><text x="13.026" y="1.67" class="e">should</text><text x="20.04" y="1.67" class="e">be</text><text x="23.045999999999996" y="1.67" class="e">absent,</text><text x="31.061999999999998" y="1.67" class="e">not</text><text x="35.06999999999999" y="1.67" class="e">a</text><text x="37.074" y="1.67" class="e">character</text><text x="47.093999999999994" y="1.67" class="e">vector</text><text x="54.108" y="1.67" class="e">(&#x27;factor&#x27;)</text><text x="0" y="3.8409999999999997" class="d">x</text><text x="2.004" y="3.8409999999999997" class="e">`names(x)`:</text><text x="14.027999999999999" y="3.8409999999999997" class="f">-&#x27;x&#x27;</text><text x="19.037999999999997" y="3.8409999999999997" class="e">&#x27;y&#x27;</text><text x="23.045999999999996" y="3.8409999999999997" class="g">+&#x27;x&#x27;</text><text x="0" y="6.012" class="d">x</text><text x="2.004" y="6.012" class="e">`class(x)`:</text><text x="14.027999999999999" y="6.012" class="g">+&#x27;tbl_df&#x27;</text><text x="24.048" y="6.012" class="g">+&#x27;tbl&#x27;</text><text x="31.061999999999998" y="6.012" class="e">&#x27;data.frame&#x27;</text><text x="0" y="8.183" class="d">x</text><text x="2.004" y="8.183" class="e">`names(x)`:</text><text x="14.027999999999999" y="8.183" class="f">-&#x27;mpg&#x27;</text><text x="21.041999999999998" y="8.183" class="f">-&#x27;cyl&#x27;</text><text x="28.055999999999997" y="8.183" class="f">-&#x27;disp&#x27;</text><text x="36.071999999999996" y="8.183" class="f">-&#x27;hp&#x27;</text><text x="42.083999999999996" y="8.183" class="f">-&#x27;drat&#x27;</text><text x="50.1" y="8.183" class="f">-&#x27;wt&#x27;</text><text x="56.111999999999995" y="8.183" class="f">-&#x27;qsec&#x27;</text><text x="64.128" y="8.183" class="e">&#x27;vs&#x27;</text><text x="69.13799999999999" y="8.183" class="f">-&#x27;am&#x27;</text><text x="75.14999999999999" y="8.183" class="e">&#x27;gear&#x27;</text><text x="82.164" y="8.183" class="g">+&#x27;wt&#x27;</text><text x="88.17599999999999" y="8.183" class="g">+&#x27;am&#x27;</text><text x="94.18799999999999" y="8.183" class="g">+&#x27;hp&#x27;</text><text x="0" y="10.354" class="g">+&#x27;disp&#x27;</text><text x="8.016" y="10.354" class="e">&#x27;carb&#x27;</text><text x="15.029999999999998" y="10.354" class="g">+&#x27;drat&#x27;</text><text x="23.045999999999996" y="10.354" class="g">+&#x27;qsec&#x27;</text><text x="31.061999999999998" y="10.354" class="g">+&#x27;mpg&#x27;</text><text x="38.07599999999999" y="10.354" class="g">+&#x27;cyl&#x27;</text></svg></svg></g></svg></svg>