<svg xmlns="http://www.w3.org/2000/svg" xmlns:xlink="http://www.w3.org/1999/xlink" width="1040" height="191.97"><rect width="1040" height="191.97" rx="0" ry="0" class="a"></rect><svg height="151.97" viewBox="0 0 100 15.197" width="1000" x="20" xmlns="http://www.w3.org/2000/svg" xmlns:xlink="http://www.w3.org/1999/xlink" y="20"><style>.a{fill:rgb(40,45,53)}.b{font-family:'Fira Code',Monaco,Consolas,Menlo,'Bitstream Vera Sans Mono','Powerline Symbols',monospace}.c{fill:transparent}.d{fill:rgb(185,192,203);white-space:pre}.e{fill:rgb(219,171,121);white-space:pre}.f{fill:rgb(111,119,131);white-space:pre}.g{fill:rgb(168,204,140);white-space:pre}.h{fill:rgb(113,190,242);white-space:pre}</style><g font-family="&#x27;Fira Code&#x27;,Monaco,Consolas,Menlo,&#x27;Bitstream Vera Sans Mono&#x27;,&#x27;Powerline Symbols&#x27;,monospace" font-size="1.67" class="b"><defs><symbol id="a"><rect height="8" width="100" x="0" y="0" class="c"></rect></symbol></defs><rect height="15.197" width="100" class="a"></rect><svg x="0" y="0" width="100"><svg x="0"><use xlink:href="#a"></use><text x="4.008" y="1.67" class="d">old</text><text x="8.016" y="1.67" class="d">|</text><text x="10.02" y="1.67" class="d">new</text><text x="0" y="3.8409999999999997" class="d">[1]</text><text x="4.008" y="3.8409999999999997" class="e">&quot;x&quot;</text><text x="8.016" y="3.8409999999999997" class="d">-</text><text x="0" y="6.012" class="d">[2]</text><text x="4.008" y="6.012" class="f">&quot;y&quot;</text><text x="8.016" y="6.012" class="d">|</text><text x="10.02" y="6.012" class="f">&quot;y&quot;</text><text x="14.027999999999999" y="6.012" class="d">[1]</text><text x="0" y="8.183" class="d">[3]</text><text x="4.008" y="8.183" class="f">&quot;a&quot;</text><text x="8.016" y="8.183" class="d">|</text><text x="10.02" y="8.183" class="f">&quot;a&quot;</text><text x="14.027999999999999" y="8.183" class="d">[2]</text><text x="0" y="10.354" class="d">[4]</text><text x="4.008" y="10.354" class="g">&quot;b&quot;</text><text x="8.016" y="10.354" class="d">-</text><text x="10.02" y="10.354" class="g">&quot;B&quot;</text><text x="14.027999999999999" y="10.354" class="d">[3]</text><text x="0" y="12.525" class="d">[5]</text><text x="4.008" y="12.525" class="f">&quot;c&quot;</text><text x="8.016" y="12.525" class="d">|</text><text x="10.02" y="12.525" class="f">&quot;c&quot;</text><text x="14.027999999999999" y="12.525" class="d">[4]</text><text x="8.016" y="14.696" class="d">-</text><text x="10.02" y="14.696" class="h">&quot;d&quot;</text><text x="14.027999999999999" y="14.696" class="d">[5]</text></svg></svg></g></svg></svg>