<svg xmlns="http://www.w3.org/2000/svg" xmlns:xlink="http://www.w3.org/1999/xlink" width="1040" height="126.83999999999999"><rect width="1040" height="126.83999999999999" rx="0" ry="0" class="a"></rect><svg height="86.83999999999999" viewBox="0 0 100 8.684" width="1000" x="20" xmlns="http://www.w3.org/2000/svg" xmlns:xlink="http://www.w3.org/1999/xlink" y="20"><style>.a{fill:rgb(40,45,53)}.b{font-family:'Fira Code',Monaco,Consolas,Menlo,'Bitstream Vera Sans Mono','Powerline Symbols',monospace}.c{fill:transparent}.d{fill:rgb(232,131,136);white-space:pre}.e{fill:rgb(185,192,203);white-space:pre}.f{fill:rgb(219,171,121);white-space:pre}.g{fill:rgb(113,190,242);white-space:pre}</style><g font-family="&#x27;Fira Code&#x27;,Monaco,Consolas,Menlo,&#x27;Bitstream Vera Sans Mono&#x27;,&#x27;Powerline Symbols&#x27;,monospace" font-size="1.67" class="b"><defs><symbol id="a"><rect height="5" width="100" x="0" y="0" class="c"></rect></symbol></defs><rect height="8.684" width="100" class="a"></rect><svg x="0" y="0" width="100"><svg x="0"><use xlink:href="#a"></use><text x="0" y="1.67" class="d">x</text><text x="2.004" y="1.67" class="e">`levels(x)`</text><text x="14.027999999999999" y="1.67" class="e">should</text><text x="21.041999999999998" y="1.67" class="e">be</text><text x="24.048" y="1.67" class="e">absent,</text><text x="32.064" y="1.67" class="e">not</text><text x="36.071999999999996" y="1.67" class="e">a</text><text x="38.07599999999999" y="1.67" class="e">character</text><text x="48.096" y="1.67" class="e">vector</text><text x="55.10999999999999" y="1.67" class="e">(&#x27;x&#x27;)</text><text x="0" y="3.8409999999999997" class="d">x</text><text x="2.004" y="3.8409999999999997" class="e">`class(x)`</text><text x="13.026" y="3.8409999999999997" class="e">should</text><text x="20.04" y="3.8409999999999997" class="e">be</text><text x="23.045999999999996" y="3.8409999999999997" class="e">absent,</text><text x="31.061999999999998" y="3.8409999999999997" class="e">not</text><text x="35.06999999999999" y="3.8409999999999997" class="e">a</text><text x="37.074" y="3.8409999999999997" class="e">character</text><text x="47.093999999999994" y="3.8409999999999997" class="e">vector</text><text x="54.108" y="3.8409999999999997" class="e">(&#x27;factor&#x27;)</text><text x="0" y="6.012" class="d">x</text><text x="2.004" y="6.012" class="e">`names(x)`:</text><text x="14.027999999999999" y="6.012" class="f">-&#x27;x&#x27;</text><text x="19.037999999999997" y="6.012" class="e">&#x27;y&#x27;</text><text x="23.045999999999996" y="6.012" class="g">+&#x27;x&#x27;</text><text x="0" y="8.183" class="d">x</text><text x="2.004" y="8.183" class="e">`class(x)`:</text><text x="14.027999999999999" y="8.183" class="g">+&#x27;tbl_df&#x27;</text><text x="24.048" y="8.183" class="g">+&#x27;tbl&#x27;</text><text x="31.061999999999998" y="8.183" class="e">&#x27;data.frame&#x27;</text></svg></svg></g></svg></svg>